<?xml version="1.0" encoding="utf-8"?>
<!-- Generator: Adobe Illustrator 26.3.1, SVG Export Plug-In . SVG Version: 6.00 Build 0)  -->
<svg version="1.1" id="Layer_1" xmlns="http://www.w3.org/2000/svg" xmlns:xlink="http://www.w3.org/1999/xlink" x="0px" y="0px"
	 viewBox="0 0 512 512" style="enable-background:new 0 0 512 512;" xml:space="preserve">
<style type="text/css">
	.st0{fill:#E64558;}
</style>
<g>
	<path class="st0" d="M363,47.5c21.6,0,39.2,17.6,39.2,39.2c0,7.9-2.3,15.5-6.8,22.1l-2.6,3.9l-3.4,3.1
		c-7.2,6.6-16.6,10.2-26.4,10.2c-21.6,0-39.2-17.6-39.2-39.2c0-3.9,0.6-7.7,1.7-11.4l1.3-4.4l2.4-4C336.1,54.9,349.1,47.5,363,47.5
		 M363,35.5c-18.8,0-35.3,10.2-44.2,25.3C299,54.4,277.9,51,256,51C142.8,51,51,142.8,51,256s91.8,205,205,205s205-91.8,205-205
		c0-54.3-21.2-103.7-55.7-140.4c5.6-8.2,8.9-18.1,8.9-28.8C414.2,58.5,391.3,35.5,363,35.5L363,35.5z M256,449
		c-26.1,0-51.3-5.1-75.1-15.2c-23-9.7-43.6-23.6-61.4-41.4c-17.7-17.7-31.6-38.4-41.4-61.4C68.1,307.3,63,282.1,63,256
		s5.1-51.3,15.2-75.1c9.7-23,23.6-43.6,41.4-61.4s38.4-31.6,61.4-41.4C204.7,68.1,229.9,63,256,63c19.9,0,39.3,3,57.9,8.8
		c-1.4,4.7-2.2,9.7-2.2,14.9c0,28.3,22.9,51.2,51.2,51.2c13.3,0,25.4-5,34.5-13.3c15.4,16.5,27.6,35.4,36.4,56.2
		c10.1,23.8,15.2,49.1,15.2,75.1s-5.1,51.3-15.2,75.1c-9.7,23-23.6,43.6-41.4,61.4c-17.7,17.7-38.4,31.6-61.4,41.4
		C307.3,443.9,282.1,449,256,449L256,449z"/>
</g>
<g>
	<path class="st0" d="M307,324.3c3,0,5.8,0.9,8.2,2.7l2.7,2l1.4,3c0.9,1.8,1.3,3.7,1.3,5.7c0,7.4-6.1,13.5-13.5,13.5
		c-4.1,0-8-1.8-10.5-5.1l-2.1-2.6l-0.6-3.2c-0.2-0.9-0.3-1.8-0.3-2.6C293.5,330.3,299.5,324.3,307,324.3 M256,153.5
		c-56.6,0-102.5,45.9-102.5,102.5c0,56.6,45.9,102.5,102.5,102.5c10.8,0,21.3-1.7,31.1-4.8c4.7,5.8,11.8,9.6,19.9,9.6
		c14.1,0,25.5-11.4,25.5-25.5c0-3.9-0.9-7.6-2.4-10.9c17.6-18.4,28.5-43.4,28.5-70.9C358.5,199.4,312.6,153.5,256,153.5L256,153.5z
		 M256,346.5c-49.9,0-90.5-40.6-90.5-90.5c0-49.9,40.6-90.5,90.5-90.5s90.5,40.6,90.5,90.5c0,23.7-9.2,45.3-24.1,61.5
		c-4.3-3.3-9.6-5.2-15.4-5.2c-14.1,0-25.5,11.4-25.5,25.5c0,1.7,0.2,3.3,0.5,4.9C273.7,345.2,265,346.5,256,346.5L256,346.5z"/>
</g>
</svg>
