<?xml version="1.0" encoding="utf-8"?>
<!-- Generator: Adobe Illustrator 26.3.1, SVG Export Plug-In . SVG Version: 6.00 Build 0)  -->
<svg version="1.1" id="Layer_1" xmlns="http://www.w3.org/2000/svg" xmlns:xlink="http://www.w3.org/1999/xlink" x="0px" y="0px"
	 viewBox="0 0 1401.4 236.3" style="enable-background:new 0 0 1401.4 236.3;" xml:space="preserve">
<style type="text/css">
	.st0{fill:#E64558;}
</style>
<g>
	<g>
		<path class="st0" d="M156,21.6c10.8,0,19.6,8.8,19.6,19.6c0,4-1.2,7.8-3.4,11l-1.3,1.9l-1.7,1.6c-3.6,3.3-8.3,5.1-13.2,5.1
			c-10.8,0-19.6-8.8-19.6-19.6c0-1.9,0.3-3.9,0.8-5.7l0.7-2.2l1.2-2C142.6,25.3,149.1,21.6,156,21.6 M156,15.6
			c-9.4,0-17.6,5.1-22.1,12.6c-9.9-3.2-20.4-4.9-31.4-4.9C45.9,23.3,0,69.1,0,125.7c0,56.5,45.9,102.4,102.5,102.4
			S205,182.2,205,125.7c0-27.1-10.6-51.8-27.8-70.1c2.8-4.1,4.4-9.1,4.4-14.4C181.6,27,170.1,15.6,156,15.6L156,15.6z M102.5,222.1
			c-13,0-25.7-2.5-37.6-7.6c-11.5-4.9-21.8-11.8-30.7-20.7c-8.9-8.9-15.8-19.2-20.7-30.6c-5-11.9-7.6-24.5-7.6-37.5
			c0-13,2.6-25.6,7.6-37.5c4.9-11.5,11.8-21.8,20.7-30.6c8.9-8.9,19.2-15.8,30.7-20.7c11.9-5,24.5-7.6,37.6-7.6
			c9.9,0,19.6,1.5,29,4.4c-0.7,2.4-1.1,4.9-1.1,7.5c0,14.1,11.5,25.6,25.6,25.6c6.6,0,12.7-2.5,17.2-6.7
			c7.7,8.3,13.8,17.7,18.2,28.1c5,11.9,7.6,24.5,7.6,37.5c0,13-2.6,25.6-7.6,37.5c-4.9,11.5-11.8,21.8-20.7,30.6
			c-8.9,8.9-19.2,15.8-30.7,20.7C128.2,219.5,115.5,222.1,102.5,222.1L102.5,222.1z"/>
	</g>
	<g>
		<path class="st0" d="M128,159.8c1.5,0,2.9,0.5,4.1,1.4l1.3,1l0.7,1.5c0.4,0.9,0.6,1.9,0.6,2.9c0,3.7-3,6.7-6.8,6.7
			c-2.1,0-4-0.9-5.3-2.5l-1-1.3l-0.3-1.6c-0.1-0.4-0.1-0.9-0.1-1.3C121.2,162.8,124.3,159.8,128,159.8 M102.5,74.5
			c-28.3,0-51.2,22.9-51.2,51.2c0,28.3,22.9,51.2,51.2,51.2c5.4,0,10.6-0.8,15.5-2.4c2.3,2.9,5.9,4.8,9.9,4.8
			c7,0,12.8-5.7,12.8-12.7c0-1.9-0.4-3.8-1.2-5.4c8.8-9.2,14.2-21.7,14.2-35.4C153.8,97.4,130.8,74.5,102.5,74.5L102.5,74.5z
			 M102.5,170.9c-25,0-45.2-20.3-45.2-45.2c0-24.9,20.3-45.2,45.2-45.2s45.2,20.3,45.2,45.2c0,11.8-4.6,22.6-12.1,30.7
			c-2.1-1.6-4.8-2.6-7.7-2.6c-7,0-12.8,5.7-12.8,12.7c0,0.8,0.1,1.7,0.2,2.5C111.4,170.2,107,170.9,102.5,170.9L102.5,170.9z"/>
	</g>
</g>
<g>
	<path class="st0" d="M303.5,76.9c8.7,5,15.5,11.9,20.5,20.6c5,8.7,7.5,18.5,7.5,29.1v48.2c0,2.2-0.8,4-2.3,5.5
		c-1.5,1.5-3.4,2.3-5.7,2.3c-2.3,0-4.2-0.7-5.7-2.2c-1.5-1.4-2.3-3.3-2.3-5.6v-12.3c-4.8,6.6-10.9,11.7-18.2,15.5
		c-7.4,3.8-15.5,5.6-24.4,5.6c-10.4,0-19.8-2.5-28.2-7.5c-8.4-5-15-11.8-19.9-20.5c-4.9-8.7-7.3-18.3-7.3-29s2.5-20.4,7.5-29.1
		c5-8.7,11.8-15.6,20.5-20.6c8.7-5,18.3-7.5,29-7.5S294.8,71.9,303.5,76.9z M295.6,163.7c6.3-3.7,11.2-8.8,14.9-15.3
		c3.6-6.5,5.4-13.8,5.4-21.8c0-8.1-1.8-15.3-5.4-21.8c-3.6-6.5-8.6-11.6-14.9-15.4c-6.3-3.8-13.3-5.6-21.1-5.6s-14.9,1.9-21.2,5.6
		c-6.4,3.8-11.3,8.9-15,15.4c-3.6,6.5-5.4,13.8-5.4,21.8c0,8.1,1.8,15.3,5.4,21.8c3.6,6.5,8.6,11.6,15,15.3
		c6.4,3.7,13.4,5.5,21.2,5.5S289.3,167.4,295.6,163.7z"/>
	<path class="st0" d="M417,169c1.4,1.5,2.1,3.4,2.1,5.7c0,2.2-0.8,4-2.5,5.5c-1.6,1.5-3.7,2.3-6.2,2.3h-4.3
		c-7.2,0-13.7-1.7-19.5-5.2c-5.7-3.5-10.2-8.2-13.4-14.1c-3.2-5.9-4.8-12.7-4.8-20.2V88.3h-13.3c-2.2,0-3.9-0.6-5.2-1.9
		c-1.3-1.3-1.9-2.9-1.9-4.8c0-2.1,0.6-3.7,1.9-5c1.3-1.3,3-1.9,5.2-1.9h13.3V42.7c0-2.3,0.7-4.2,2.2-5.7c1.4-1.5,3.3-2.3,5.6-2.3
		c2.3,0,4.2,0.8,5.7,2.3c1.5,1.5,2.3,3.4,2.3,5.7v31.8h23.2c2.2,0,3.9,0.7,5.2,1.9c1.3,1.3,1.9,3,1.9,5c0,1.9-0.6,3.5-1.9,4.8
		c-1.3,1.3-3,1.9-5.2,1.9h-23.2V143c0,7,2,12.7,6.2,17.1c4.1,4.4,9.4,6.7,15.8,6.7h5.5C413.8,166.8,415.6,167.5,417,169z"/>
	<path class="st0" d="M584.1,74.9c6.2,3.8,11.1,9.3,14.6,16.3c3.5,7,5.2,15.2,5.2,24.5v59c0,2.3-0.7,4.2-2.2,5.6
		c-1.4,1.4-3.3,2.2-5.6,2.2c-2.3,0-4.2-0.7-5.7-2.2c-1.5-1.4-2.3-3.3-2.3-5.6v-59c0-9.7-2.5-17.4-7.5-23.1c-5-5.7-11.5-8.5-19.6-8.5
		c-8.6,0-15.6,2.9-20.9,8.6c-5.3,5.7-7.9,13.3-7.8,22.5v0.4v59c0,2.3-0.7,4.2-2.2,5.6c-1.4,1.4-3.3,2.2-5.6,2.2
		c-2.3,0-4.2-0.7-5.7-2.2c-1.5-1.4-2.3-3.3-2.3-5.6v-59c0-9.7-2.5-17.4-7.5-23.1c-5-5.7-11.5-8.5-19.6-8.5c-8.5,0-15.4,2.8-20.9,8.4
		c-5.5,5.6-8.2,12.8-8.2,21.5v60.7c0,2.3-0.7,4.2-2.2,5.6c-1.4,1.4-3.3,2.2-5.6,2.2c-2.3,0-4.2-0.7-5.7-2.2
		c-1.5-1.4-2.3-3.3-2.3-5.6V78.4c0-2.3,0.7-4.2,2.3-5.7c1.5-1.5,3.4-2.3,5.7-2.3c2.3,0,4.2,0.8,5.6,2.3c1.4,1.5,2.2,3.4,2.2,5.7v4.5
		c3.8-4.4,8.4-7.8,13.6-10.1c5.3-2.4,11-3.6,17.1-3.6c7.5,0,14.3,1.7,20.3,5.1c6,3.4,10.8,8.2,14.3,14.4c4-6.1,9.1-10.9,15.5-14.4
		c6.4-3.4,13.5-5.1,21.4-5.1C570.8,69.2,577.9,71.1,584.1,74.9z"/>
	<path class="st0" d="M660.6,176.2c-8.7-4.9-15.5-11.7-20.4-20.4c-4.9-8.7-7.4-18.4-7.4-29.2c0-10.8,2.5-20.6,7.4-29.3
		c4.9-8.7,11.7-15.6,20.4-20.5c8.7-4.9,18.4-7.4,29.2-7.4c10.8,0,20.5,2.5,29.1,7.4c8.6,4.9,15.4,11.8,20.4,20.5
		c5,8.7,7.5,18.5,7.5,29.3c0,10.8-2.5,20.5-7.4,29.2c-4.9,8.7-11.7,15.5-20.4,20.4c-8.7,4.9-18.4,7.4-29.2,7.4
		C679,183.6,669.3,181.1,660.6,176.2z M711.1,163.7c6.3-3.7,11.2-8.8,14.8-15.3c3.6-6.5,5.3-13.8,5.3-21.8c0-8.2-1.8-15.5-5.3-22
		c-3.6-6.5-8.5-11.6-14.8-15.3c-6.3-3.7-13.4-5.5-21.3-5.5c-7.8,0-14.9,1.8-21.2,5.5c-6.4,3.7-11.3,8.8-15,15.3
		c-3.6,6.5-5.4,13.8-5.4,22c0,8.1,1.8,15.3,5.4,21.8c3.6,6.5,8.6,11.6,15,15.3c6.4,3.7,13.4,5.5,21.2,5.5
		C697.7,169.2,704.9,167.4,711.1,163.7z"/>
	<path class="st0" d="M792.3,179.3c-7.8-2.9-14.1-6.9-18.9-12.1c-1.4-1.6-2-3.2-2-4.7c0-2.3,1.1-4.4,3.3-6.2
		c1.6-1.2,3.3-1.8,5.1-1.8c2.3,0,4.3,1,5.9,2.9c3.3,3.8,7.6,6.8,13,8.8c5.4,2.1,11.4,3.1,17.9,3.1c9.6,0,16.7-1.6,21.5-4.9
		c4.8-3.3,7.2-7.6,7.4-12.9c0-4.9-2.4-9-7.2-12.3c-4.8-3.3-12.4-5.7-22.8-7.4c-13.4-2.2-23.4-6-30-11.4c-6.6-5.4-9.9-11.9-9.9-19.6
		c0-10,3.9-17.7,11.6-23.2c7.7-5.5,17.4-8.2,29-8.2c9,0,16.9,1.5,23.6,4.6c6.7,3.1,12.1,7.3,16.2,12.8c1.1,1.8,1.6,3.4,1.6,4.7
		c0,2.3-1.1,4.2-3.3,5.5c-1,0.7-2.3,1-3.9,1c-2.9,0-5.3-1-7.2-3.1c-6.7-7.7-15.9-11.5-27.5-11.5c-7.5,0-13.5,1.5-18,4.6
		c-4.5,3.1-6.8,6.9-6.8,11.6c0,4.9,2.1,8.9,6.4,11.8c4.2,2.9,11.8,5.3,22.5,7.1c14.6,2.5,25.1,6.5,31.4,12
		c6.3,5.5,9.4,12.4,9.4,20.6c0,6.3-1.9,11.9-5.6,16.8c-3.8,4.9-9,8.7-15.7,11.5c-6.7,2.7-14.3,4.1-22.8,4.1
		C808.2,183.6,800.1,182.1,792.3,179.3z"/>
	<path class="st0" d="M974,76.9c8.7,5,15.5,11.9,20.5,20.6c5,8.7,7.5,18.5,7.5,29.1s-2.4,20.3-7.3,29c-4.9,8.7-11.5,15.5-19.9,20.5
		c-8.4,5-17.8,7.5-28.2,7.5c-8.9,0-17-1.9-24.4-5.6c-7.4-3.8-13.5-8.9-18.2-15.5v60.1c0,2.3-0.8,4.2-2.3,5.7
		c-1.5,1.5-3.4,2.3-5.7,2.3c-2.3,0-4.2-0.8-5.6-2.3c-1.4-1.5-2.2-3.4-2.2-5.7v-45.9c-0.1-0.4-0.2-1-0.2-1.8v-48.2
		c0-10.7,2.5-20.4,7.5-29.1c5-8.7,11.8-15.6,20.5-20.6c8.7-5,18.3-7.5,29-7.5C955.7,69.4,965.4,71.9,974,76.9z M966.3,163.7
		c6.4-3.7,11.3-8.8,15-15.3c3.6-6.5,5.4-13.8,5.4-21.8c0-8.1-1.8-15.3-5.4-21.8c-3.6-6.5-8.6-11.6-15-15.4
		c-6.4-3.8-13.4-5.6-21.2-5.6s-14.8,1.9-21.1,5.6c-6.3,3.8-11.2,8.9-14.9,15.4c-3.6,6.5-5.4,13.8-5.4,21.8c0,2.3,0.1,4,0.2,5.1
		c0.1,0.3,0.2,0.6,0.2,1c1.4,10.7,5.8,19.4,13.4,26.2c7.6,6.8,16.8,10.2,27.6,10.2C952.8,169.2,959.9,167.4,966.3,163.7z"/>
	<path class="st0" d="M1113,76.9c8.7,5,15.5,11.9,20.5,20.6c5,8.7,7.5,18.5,7.5,29.1v48.2c0,2.2-0.8,4-2.3,5.5
		c-1.5,1.5-3.4,2.3-5.7,2.3c-2.3,0-4.2-0.7-5.7-2.2c-1.5-1.4-2.3-3.3-2.3-5.6v-12.3c-4.8,6.6-10.9,11.7-18.2,15.5
		c-7.4,3.8-15.5,5.6-24.4,5.6c-10.4,0-19.8-2.5-28.2-7.5c-8.4-5-15-11.8-19.9-20.5c-4.9-8.7-7.3-18.3-7.3-29s2.5-20.4,7.5-29.1
		c5-8.7,11.8-15.6,20.5-20.6c8.7-5,18.3-7.5,29-7.5S1104.4,71.9,1113,76.9z M1105.1,163.7c6.3-3.7,11.2-8.8,14.9-15.3
		c3.6-6.5,5.4-13.8,5.4-21.8c0-8.1-1.8-15.3-5.4-21.8c-3.6-6.5-8.6-11.6-14.9-15.4c-6.3-3.8-13.3-5.6-21.1-5.6s-14.9,1.9-21.2,5.6
		c-6.4,3.8-11.3,8.9-15,15.4c-3.6,6.5-5.4,13.8-5.4,21.8c0,8.1,1.8,15.3,5.4,21.8c3.6,6.5,8.6,11.6,15,15.3
		c6.4,3.7,13.4,5.5,21.2,5.5S1098.9,167.4,1105.1,163.7z"/>
	<path class="st0" d="M1193.1,176.1c-8.5-5-15.1-11.8-20-20.5c-4.9-8.7-7.3-18.3-7.3-29c0-10.9,2.3-20.7,7-29.4
		c4.6-8.7,11.1-15.5,19.3-20.4c8.2-4.9,17.4-7.4,27.7-7.4c17.1,0,31,6.6,41.6,19.7c1.1,1.2,1.6,2.7,1.6,4.3c0,2.2-1.2,4.1-3.5,5.7
		c-1.2,0.8-2.5,1.2-3.9,1.2c-2,0-4-1-5.9-3.1c-4.1-4.5-8.6-7.9-13.5-10.1c-4.9-2.3-10.4-3.4-16.4-3.4c-7.5,0-14.2,1.8-20.1,5.4
		c-5.9,3.6-10.4,8.7-13.6,15.3c-3.2,6.6-4.8,13.9-4.8,22.1c0,8.1,1.7,15.3,5.1,21.8c3.4,6.5,8.2,11.6,14.4,15.3
		c6.1,3.7,13.2,5.5,21.1,5.5c10.9,0,19.7-2.9,26.4-8.8c1.8-1.5,3.6-2.3,5.5-2.3c1.6,0,3.1,0.5,4.5,1.6c1.9,1.6,2.9,3.5,2.9,5.5
		c0,1.8-0.7,3.3-2,4.5c-9.8,9.2-22.3,13.7-37.3,13.7C1211.1,183.6,1201.6,181.1,1193.1,176.1z"/>
	<path class="st0" d="M1368.6,76.5c7.8,4.7,13.8,11.2,18.1,19.6c4.3,8.3,6.5,17.8,6.5,28.5c0,2.2-0.7,3.9-2,5.2
		c-1.4,1.3-3.1,1.9-5.3,1.9H1303c1.1,11.2,5.5,20.3,13.1,27.3c7.7,7,17.2,10.5,28.7,10.5c4.9,0,9.9-0.9,14.9-2.6c5-1.7,9-3.9,12-6.5
		c1.8-1.4,3.6-2,5.5-2c1.5,0,3,0.5,4.5,1.6c1.8,1.6,2.7,3.5,2.7,5.5c0,1.8-0.8,3.4-2.3,4.7c-4.5,3.8-10.2,7-17.2,9.5
		c-7,2.5-13.7,3.8-20.1,3.8c-10.9,0-20.7-2.4-29.3-7.3c-8.6-4.8-15.3-11.6-20.2-20.3c-4.9-8.7-7.3-18.5-7.3-29.4
		c0-11.1,2.3-20.9,6.9-29.6c4.6-8.7,10.9-15.4,19.1-20.3c8.1-4.8,17.4-7.3,27.8-7.3C1351.8,69.4,1360.8,71.8,1368.6,76.5z
		 M1315.9,93.2c-6.8,6.4-11,14.9-12.5,25.4h75c-1.1-10.5-4.9-19-11.5-25.4c-6.6-6.4-15-9.6-25.2-9.6
		C1331.3,83.5,1322.7,86.8,1315.9,93.2z"/>
</g>
</svg>
